<svg width="28" height="20" viewBox="0 0 28 20" fill="none" xmlns="http://www.w3.org/2000/svg">
<path d="M7.125 19.375C5.3975 19.375 3.92396 18.7757 2.70438 17.5772C1.48479 16.3786 0.875 14.9139 0.875 13.1828C0.875 11.6299 1.37458 10.2641 2.37375 9.08531C3.37292 7.90656 4.61208 7.20823 6.09125 6.99031C6.49187 5.12177 7.43146 3.59375 8.91 2.40625C10.3883 1.21875 12.085 0.625 14 0.625C16.2633 0.625 18.1833 1.41333 19.76 2.99C21.3367 4.56667 22.125 6.48667 22.125 8.75V9.375H22.5097C23.827 9.4775 24.9255 10.0072 25.8053 10.9641C26.6851 11.9207 27.125 13.0577 27.125 14.375C27.125 15.7692 26.6443 16.951 25.6828 17.9206C24.7211 18.8902 23.5432 19.375 22.1491 19.375H15.3222C14.6907 19.375 14.1563 19.1562 13.7188 18.7188C13.2813 18.2812 13.0625 17.7468 13.0625 17.1153V10.2691L10.75 12.5431L9.43281 11.2381L14 6.67063L18.5672 11.2381L17.25 12.5431L14.9375 10.2691V17.1153C14.9375 17.2116 14.9776 17.2997 15.0578 17.3797C15.1378 17.4599 15.2259 17.5 15.3222 17.5H22.125C23 17.5 23.7396 17.1979 24.3438 16.5938C24.9479 15.9896 25.25 15.25 25.25 14.375C25.25 13.5 24.9479 12.7604 24.3438 12.1562C23.7396 11.5521 23 11.25 22.125 11.25H20.25V8.75C20.25 7.02083 19.6406 5.54688 18.4219 4.32812C17.2031 3.10938 15.7292 2.5 14 2.5C12.2708 2.5 10.7969 3.10938 9.57812 4.32812C8.35938 5.54688 7.75 7.02083 7.75 8.75H7.10094C5.91656 8.75 4.89531 9.17708 4.03719 10.0312C3.17906 10.8854 2.75 11.9167 2.75 13.125C2.75 14.3333 3.17708 15.3646 4.03125 16.2188C4.88542 17.0729 5.91667 17.5 7.125 17.5H10.25V19.375H7.125Z" fill="white"/>
</svg>
