<svg width="27" height="20" viewBox="0 0 27 20" fill="none" xmlns="http://www.w3.org/2000/svg">
<path d="M6.25 19.375C4.5225 19.375 3.04896 18.7757 1.82938 17.5772C0.609792 16.3786 0 14.9139 0 13.1828C0 11.6299 0.499583 10.2641 1.49875 9.08531C2.49792 7.90656 3.73708 7.20823 5.21625 6.99031C5.61687 5.12177 6.55646 3.59375 8.035 2.40625C9.51333 1.21875 11.21 0.625 13.125 0.625C15.3883 0.625 17.3083 1.41333 18.885 2.99C20.4617 4.56667 21.25 6.48667 21.25 8.75V9.375H21.6347C22.952 9.4775 24.0505 10.0072 24.9303 10.9641C25.8101 11.9207 26.25 13.0577 26.25 14.375C26.25 15.7692 25.7693 16.951 24.8078 17.9206C23.8461 18.8902 22.6682 19.375 21.2741 19.375H14.4472C13.8157 19.375 13.2813 19.1562 12.8438 18.7188C12.4063 18.2812 12.1875 17.7468 12.1875 17.1153V10.2691L9.875 12.5431L8.55781 11.2381L13.125 6.67063L17.6922 11.2381L16.375 12.5431L14.0625 10.2691V17.1153C14.0625 17.2116 14.1026 17.2997 14.1828 17.3797C14.2628 17.4599 14.3509 17.5 14.4472 17.5H21.25C22.125 17.5 22.8646 17.1979 23.4688 16.5938C24.0729 15.9896 24.375 15.25 24.375 14.375C24.375 13.5 24.0729 12.7604 23.4688 12.1562C22.8646 11.5521 22.125 11.25 21.25 11.25H19.375V8.75C19.375 7.02083 18.7656 5.54688 17.5469 4.32812C16.3281 3.10938 14.8542 2.5 13.125 2.5C11.3958 2.5 9.92188 3.10938 8.70312 4.32812C7.48438 5.54688 6.875 7.02083 6.875 8.75H6.22594C5.04156 8.75 4.02031 9.17708 3.16219 10.0312C2.30406 10.8854 1.875 11.9167 1.875 13.125C1.875 14.3333 2.30208 15.3646 3.15625 16.2188C4.01042 17.0729 5.04167 17.5 6.25 17.5H9.375V19.375H6.25Z" fill="#4D1592"/>
</svg>
